<svg xmlns="http://www.w3.org/2000/svg" xmlns:xlink="http://www.w3.org/1999/xlink" version="1.1" x="0px" y="0px" viewBox="0 0 100 125" enable-background="new 0 0 100 100" xml:space="preserve"><g><path d="M55.2,14L19.8,34.8h-13c-1.2,0-2.3,1-2.3,2.3v26c0,1.2,1,2.3,2.3,2.3h13c0,0,34.8,20.4,35.6,20.9c1.4,0.8,3.1-0.3,3.1-1.8   l0-68.6C58.5,14,56.5,13,55.2,14z"/><path d="M93.3,47.7H79.8c-1.2,0-2.1,0.9-2.1,2.1c0,1.2,0.9,2.1,2.1,2.1h13.5c1.2,0,2.1-0.9,2.1-2.1C95.4,48.6,94.5,47.7,93.3,47.7z   "/><path d="M72.6,34.6c0.5,0,1.1-0.2,1.5-0.6l9.5-9.5c0.8-0.8,0.8-2.2,0-3c-0.8-0.8-2.2-0.8-3,0L71.1,31c-0.8,0.8-0.8,2.2,0,3   C71.5,34.4,72.1,34.6,72.6,34.6z"/><path d="M74.1,65.6c-0.8-0.8-2.2-0.8-3,0c-0.8,0.8-0.8,2.2,0,3l9.5,9.5c0.4,0.4,1,0.6,1.5,0.6s1.1-0.2,1.5-0.6c0.8-0.8,0.8-2.2,0-3   L74.1,65.6z"/></g><text x="0" y="115" fill="#000000" font-size="5px" font-weight="bold" font-family="'Helvetica Neue', Helvetica, Arial-Unicode, Arial, Sans-serif">Created by Martyn Jasinski</text><text x="0" y="120" fill="#000000" font-size="5px" font-weight="bold" font-family="'Helvetica Neue', Helvetica, Arial-Unicode, Arial, Sans-serif">from the Noun Project</text></svg>